# xmcd CD database file
# Copyright (C) 1993-1998 Ti Kan
#
# Track frame offsets:
#	150
#	15105
#	29520
#	43655
#	56463
#	71833
#	84103
#	102383
#	117343
#	131905
#	139400
#	151568
#	166358
#	180530
#	196855
#	208133
#	222650
#	237760
#	249628
#	263035
#
# Disc length: 3677 seconds
#
# Revision: 2
# Processed by: cddbd v1.4b41PL1 Copyright (c) Steve Scherf et al.
# Submitted via: CDValet v3.30 - Copyright (c) 1997 Greg Leichner
#
DISCID=1a0e5b14
DTITLE=Various Artist - Legendary Bands of the 30's
DYEAR=1900
DGENRE=
TTITLE0=Casa Loma Stomp
TTITLE1=Minnie and the Moocher
TTITLE2=Dream a little Dream of Me
TTITLE3=Sugar Blues
TTITLE4=It's only a Paper Moon
TTITLE5=Blue Moon
TTITLE6=St. Louis Blues
TTITLE7=The Merry-Go-Round broke down
TTITLE8=My Shawl
TTITLE9=Rippling Rhythm
TTITLE10=Heartaches
TTITLE11=Stormy Weather
TTITLE12=Stop, Look and Listen
TTITLE13=I'm Gettin' Sentimental over You
TTITLE14=Rap Tap on Wood
TTITLE15=Organ Grinder's Swing
TTITLE16=My Reverie
TTITLE17=Got a Date withan Angel
TTITLE18=What's New? (I'm Free)
TTITLE19=Stompin' at the Savoy
EXTD=
EXTT0=
EXTT1=
EXTT2=
EXTT3=
EXTT4=
EXTT5=
EXTT6=
EXTT7=
EXTT8=
EXTT9=
EXTT10=
EXTT11=
EXTT12=
EXTT13=
EXTT14=
EXTT15=
EXTT16=
EXTT17=
EXTT18=
EXTT19=
PLAYORDER=
